<?xml version="1.0" encoding="utf-8"?>
<!-- Generator: Adobe Illustrator 21.0.2, SVG Export Plug-In . SVG Version: 6.00 Build 0)  -->
<svg version="1.1" id="Icons_-_48px" xmlns="http://www.w3.org/2000/svg" xmlns:xlink="http://www.w3.org/1999/xlink" x="0px"
	 y="0px" viewBox="0 0 100 100" style="enable-background:new 0 0 100 100;" xml:space="preserve">
<style type="text/css">
	.st0{fill:#300000;}
</style>
<g>
	<path class="st0" d="M81.6,32.1c-0.8-2.4-1.6-4.8-2.9-7c-1.2-2.2-2.6-4.3-4.3-6.2c-1.7-1.9-3.4-3.6-5.4-5.1c-2-1.5-4.1-2.8-6.3-3.8
		c8,5.6,13.7,13.8,15.8,22.8c0.5,2.3,0.8,4.6,0.9,6.9c0,1.2,0.1,2.3-0.1,3.5c-0.1,1.1-0.1,2.3-0.4,3.4c-0.7,4.5-2.2,9-4.6,12.9
		c-2.3,4-5.4,7.5-9,10.3c-3.6,2.9-7.8,5-12.2,6.3l-1.7,0.5c-0.6,0.1-1.1,0.2-1.7,0.3l-1.7,0.3c-0.6,0.1-1.2,0.1-1.7,0.2
		c-1.2,0.1-2.3,0.3-3.5,0.2c-1.2,0-2.3-0.1-3.5-0.2c-4.7-0.4-9.3-1.9-13.7-4c4,2.8,8.5,4.9,13.4,5.9c1.7,0.3,3.4,0.5,5.1,0.6
		c-0.4,0.6-0.7,1.3-1,1.9c-0.3,0.9-0.4,1.8-0.4,2.7c0,0.9,0.1,1.8,0.4,2.7c0.1,0.2,0.2,0.5,0.3,0.7c-1.3,0.1-2.6,0.2-3.9,0.4
		c-1.7,0.3-3.5,0.7-5.2,1.6c1.7,0.8,3.5,1.3,5.2,1.6c1.7,0.3,3.5,0.4,5.2,0.4c1.7,0,3.5-0.1,5.2-0.4c1.7-0.3,3.5-0.7,5.2-1.6
		c-1.7-0.8-3.5-1.3-5.2-1.6c-1.3-0.2-2.6-0.4-3.9-0.4c0.1-0.2,0.2-0.5,0.3-0.7c0.3-0.9,0.4-1.8,0.4-2.7c0-0.9-0.1-1.8-0.4-2.7
		c-0.2-0.6-0.5-1.3-0.9-1.9c0.4,0,0.8,0,1.2,0c0.6,0,1.3,0,1.9-0.1l1.9-0.2c0.6-0.1,1.3-0.1,1.9-0.3l1.8-0.4
		c4.9-1.1,9.6-3.3,13.7-6.3c4.1-3,7.5-6.9,10.2-11.3C83.1,52.7,84.5,41.8,81.6,32.1z"/>
	<path class="st0" d="M44.8,70.1c7.1-0.3,13.9-3.4,18.6-8.4c4.8-5,7.5-11.8,7.4-18.6c0,3.4-0.7,6.8-2.1,10c-1.3,3.1-3.3,6-5.8,8.3
		c-2.4,2.3-5.4,4.1-8.5,5.3c-3.1,1.2-6.5,1.7-9.8,1.5c-6.6-0.3-12.9-3.2-17.2-7.9c-4.4-4.6-6.9-10.9-6.9-17.2
		c0-6.3,2.5-12.6,6.9-17.2c4.4-4.7,10.6-7.6,17.2-7.9c3.3-0.1,6.6,0.4,9.8,1.5c3.1,1.2,6,3,8.5,5.3c2.4,2.3,4.4,5.2,5.8,8.3
		c1.3,3.1,2,6.5,2.1,10c0.1-6.8-2.7-13.6-7.4-18.6c-4.7-5-11.5-8.2-18.6-8.4c-3.5-0.1-7.1,0.4-10.5,1.7c-3.4,1.3-6.5,3.2-9.1,5.7
		c-2.6,2.5-4.8,5.6-6.2,8.9c-1.4,3.4-2.2,7-2.2,10.7c0,3.7,0.8,7.3,2.2,10.7c1.4,3.4,3.6,6.4,6.2,8.9c2.6,2.5,5.8,4.5,9.1,5.7
		C37.6,69.7,41.2,70.3,44.8,70.1z"/>
</g>
</svg>
