<?xml version="1.0" encoding="utf-8"?>
<!-- Generator: Adobe Illustrator 21.0.2, SVG Export Plug-In . SVG Version: 6.00 Build 0)  -->
<svg version="1.1" id="Icons_-_48px" xmlns="http://www.w3.org/2000/svg" xmlns:xlink="http://www.w3.org/1999/xlink" x="0px"
	 y="0px" viewBox="0 0 100 100" style="enable-background:new 0 0 100 100;" xml:space="preserve">
<style type="text/css">
	.st0{fill:#300000;}
</style>
<g>
	<path class="st0" d="M50,39.3c-1.7-0.1-3.4,0.1-5,0.6c-1.6,0.6-3.2,1.4-4.5,2.6c-2.6,2.3-4.2,5.9-4.2,9.5c0,3.6,1.6,7.2,4.2,9.5
		c2.6,2.4,6.2,3.5,9.5,3.2c3.3-0.3,6.4-1.9,8.5-4.2c2.1-2.4,3.3-5.4,3.2-8.5c0,3.1-1.4,6.1-3.6,8.1c-1.1,1-2.5,1.7-3.8,2.2
		c-1.4,0.4-2.9,0.6-4.3,0.4c-2.8-0.3-5.4-1.7-7.1-3.7c-1.7-2-2.7-4.5-2.7-7.1c0-2.6,0.9-5.1,2.7-7.1c1.7-2,4.3-3.4,7.1-3.7
		c2.8-0.3,5.8,0.6,8.1,2.6c2.3,2,3.6,5,3.6,8.1c0-3.1-1.1-6.1-3.2-8.5C56.4,41.1,53.3,39.5,50,39.3z"/>
	<path class="st0" d="M81.5,69.5l0-2.6l-0.1-5.2c-0.2-6.9-0.3-13.8-0.6-20.7l-0.1-2.6l0-1.3c0-0.4-0.1-1-0.2-1.5
		c-0.6-2-2.6-3.2-4.5-3.1L65.7,33L76,33.5c1.5,0,2.9,1.2,3.2,2.6c0.1,0.4,0.1,0.7,0.1,1.1l0,1.3l-0.1,2.6
		c-0.2,6.9-0.4,13.8-0.6,20.7l-0.1,5.2l0,2.6l0,1.3c0,0.3-0.1,0.5-0.1,0.8c-0.2,0.5-0.5,0.9-1,1.2c-0.2,0.1-0.5,0.2-0.7,0.3
		c-0.1,0-0.3,0.1-0.4,0.1c-0.1,0-0.1,0-0.2,0l-0.1,0l-0.2,0l-5.2-0.1L50,72.9l-20.7-0.1l-5.2,0l-0.2,0l-0.1,0c-0.1,0-0.1,0-0.2,0
		c-0.1,0-0.2,0-0.3-0.1c-0.2-0.1-0.4-0.2-0.6-0.3c-0.4-0.2-0.6-0.6-0.8-1C22,71.2,22,71.1,22,70.8l0-1.3l0-2.6l0-5.2l-0.2-20.7
		l0-2.6l0-1.3c0-0.3,0-0.3,0-0.5c0-0.1,0-0.2,0.1-0.4c0.2-1,1.2-1.8,2.3-1.8l10.3-0.2l0.1,0c0.5,0,0.9-0.3,1.2-0.8l3.4-7.3
		c3.7-0.1,7.3-0.2,11-0.3c3.8-0.1,7.7-0.3,11.5-0.4l4.1,7.4l-3.6-8c-0.1-0.1-0.2-0.2-0.3-0.2l0,0c-3.9-0.2-7.8-0.3-11.7-0.4
		c-3.9-0.1-7.8-0.2-11.7-0.3c-0.4,0-0.8,0.2-1,0.6l0,0l-3.7,7L24,31.5c-2.4-0.1-4.8,1.6-5.5,4c-0.1,0.3-0.1,0.6-0.2,0.9
		c0,0.3,0,0.6,0,0.8l0,1.3l0,2.6l-0.2,20.7l0,5.2l0,2.6l0,1.3c0,0.6,0.1,1.3,0.3,1.9c0.4,1.2,1.2,2.3,2.3,3c0.5,0.4,1.1,0.6,1.7,0.8
		c0.3,0.1,0.6,0.2,0.9,0.2c0.2,0,0.3,0,0.5,0l0.2,0l0.2,0l5.2,0L50,76.7l20.7-0.2l5.2-0.1l0.2,0l0.2,0c0.2,0,0.3,0,0.5,0
		c0.3,0,0.6-0.1,0.9-0.2c0.6-0.2,1.1-0.4,1.6-0.8c1-0.7,1.7-1.7,2.1-2.9c0.2-0.6,0.3-1.2,0.2-1.8L81.5,69.5z"/>
</g>
</svg>
