<?xml version="1.0" encoding="utf-8"?>
<!-- Generator: Adobe Illustrator 21.0.2, SVG Export Plug-In . SVG Version: 6.00 Build 0)  -->
<svg version="1.1" id="Icons_-_48px" xmlns="http://www.w3.org/2000/svg" xmlns:xlink="http://www.w3.org/1999/xlink" x="0px"
	 y="0px" viewBox="0 0 100 100" style="enable-background:new 0 0 100 100;" xml:space="preserve">
<style type="text/css">
	.st0{fill:#300000;}
</style>
<g>
	<path class="st0" d="M53.9,25.5L53.9,25.5C54,25.5,54,25.5,53.9,25.5z"/>
	<path class="st0" d="M53.1,25.5C52.9,25.5,53,25.5,53.1,25.5L53.1,25.5L53.1,25.5z"/>
	<path class="st0" d="M67.4,33.8c-4.6,0.1-9.3,0.3-13.9,0.5l0.2-4.5l0.1-2.3l0-1.1l0-0.6l0-0.1c0,0,0,0,0,0l0,0c0-0.1,0-0.1,0-0.2
		c0,0,0,0,0,0l0,0l0,0c0,0,0,0,0,0c0.1-0.3,0.2-0.6,0.4-0.8c0.3-0.2,0.6-0.3,1-0.3l2.9,0.1l5.7,0.2l0,0c0.4,0,0.7-0.3,0.7-0.7l0,0
		L65,10l0,0c0-0.6-0.4-1.1-1-1.1l0,0L53.2,8.7c-3.8-0.1-7.9,1.4-10.7,4.2c-2.9,2.8-4.4,6.7-4.5,10.7c-0.1,3-0.1,6-0.1,9l-5.2,0l0,0
		c-1,0-1.8,0.8-1.8,1.8l0,0c0,4.6-0.1,9.3-0.1,13.9c0,1.1,0.9,1.9,1.9,1.9h0l5,0c0,6.3-0.1,12.6,0,18.9L37.6,90v0l0,0
		c0,1.1,0.9,1.9,1.9,1.9l13.9-0.1l0,0c1,0,1.8-0.8,1.8-1.8c-0.1-7-0.1-13.9-0.3-20.9c-0.1-6.6-0.2-13.2-0.4-19.7l9.2-0.2l0,0
		c0.4,0,0.8-0.3,0.9-0.7l3.1-14l0,0c0,0,0-0.1,0-0.1C67.9,34,67.7,33.8,67.4,33.8z M63.2,47.3l-9.7-0.2c-0.6,0-1.2,0.5-1.2,1.1
		l0,0.1c-0.2,7-0.3,13.9-0.4,20.9c-0.1,6.4-0.2,12.7-0.2,19.1l-10.2-0.1l0.1-19c0-7,0-13.9,0-20.9v0l0,0c0-1.1-0.9-1.9-2-1.9l-5,0
		c0-3.4,0-6.8-0.1-10.2l5.1,0l0,0h0c1,0,1.7-0.8,1.7-1.8l-0.1-10.7c0-3.2,1.2-6.4,3.4-8.7c2.2-2.3,5.3-3.6,8.6-3.7l9.6-0.2l0.3,12.1
		l-5,0.1l-2.9,0.1c-0.5,0-1.2,0.2-1.6,0.6c-0.4,0.4-0.5,0.9-0.6,1.4c0,0,0,0,0,0l0,0h0l0,0l0,0l0,0l0,0.1v0l0,0v0c0,0,0,0,0,0l0,0.1
		l0,0.6l0,1.1l0.1,2.3l0.2,4.6l0,0c4.4,0.2,8.8,0.4,13.2,0.5L63.2,47.3z"/>
</g>
</svg>
