<?xml version="1.0" encoding="utf-8"?>
<!-- Generator: Adobe Illustrator 21.0.2, SVG Export Plug-In . SVG Version: 6.00 Build 0)  -->
<svg version="1.1" id="Icons_-_48px" xmlns="http://www.w3.org/2000/svg" xmlns:xlink="http://www.w3.org/1999/xlink" x="0px"
	 y="0px" viewBox="0 0 100 100" style="enable-background:new 0 0 100 100;" xml:space="preserve">
<style type="text/css">
	.st0{fill:#300000;}
</style>
<g>
	<path class="st0" d="M91.5,84.3l0-0.6l-0.1-2.6l-0.1-5.2L91,65.5c-0.3-6.9-0.5-13.8-1-20.7c-0.4,6.9-0.7,13.8-1,20.7l-0.3,10.4
		l-0.1,5.2l-0.1,2.6l0,0.6c0,0.2,0,0.4,0,0.6c0,0.3-0.1,0.6-0.2,0.9c-0.4,1.2-1.4,2.1-2.5,2.4c-0.3,0.1-0.6,0.1-0.9,0.1l-0.2,0
		l-0.3,0l-0.6,0l-2.6,0l-10.4-0.1L50,88l-20.7,0.1l-10.4,0.1l-2.6,0l-0.6,0l-0.3,0l-0.2,0c-0.3,0-0.6-0.1-0.9-0.1
		c-1.1-0.3-2.1-1.2-2.5-2.4c-0.1-0.3-0.2-0.6-0.2-0.9c0-0.1,0-0.3,0-0.6l0-0.6l-0.1-2.6l-0.1-5.2L11,65.5c-0.3-6.9-0.5-13.8-1-20.7
		c-0.4,6.9-0.7,13.8-1,20.7L8.7,75.9l-0.1,5.2l-0.1,2.6l0,0.6c0,0.2,0,0.4,0,0.7c0,0.6,0.1,1.1,0.3,1.7c0.6,2.2,2.3,4,4.5,4.7
		c0.5,0.2,1.1,0.3,1.7,0.3l0.4,0l0.3,0l0.6,0l2.6,0l10.4,0.1L50,92l20.7-0.1l10.4-0.1l2.6,0l0.6,0l0.3,0l0.4,0
		c0.6,0,1.1-0.2,1.7-0.3c2.2-0.7,3.9-2.5,4.5-4.7c0.1-0.5,0.2-1.1,0.3-1.7C91.5,84.7,91.5,84.5,91.5,84.3z"/>
	<path class="st0" d="M31,28.5c3.5-2.7,6.8-5.6,10.2-8.4l8.8-7.5l8.8,7.5c3.4,2.8,6.8,5.7,10.2,8.4c3.4,2.8,6.9,5.5,10.4,8.2
		c3.5,2.7,7,5.4,10.6,7.9c-3-3.2-6.2-6.3-9.4-9.4c-3.2-3.1-6.4-6.1-9.6-9.1c-3.2-3-6.5-5.9-9.8-8.9l-9.9-8.7c-0.7-0.7-1.9-0.7-2.6,0
		l-9.9,8.8c-3.3,3-6.6,5.9-9.8,8.9c-3.2,3-6.4,6-9.6,9.1c-3.2,3.1-6.3,6.2-9.4,9.4c3.6-2.6,7.1-5.2,10.6-7.9
		C24.1,34,27.6,31.3,31,28.5z"/>
	<path class="st0" d="M21.4,57.3c2.1,1.9,4.3,3.6,6.7,5.3c1.8,1.3,3.7,2.5,5.8,3.6c-1.2,1.2-2.5,2.3-3.7,3.5
		c-6,5.7-11.8,11.5-17.4,17.5c6.7-4.8,13.1-10,19.5-15.2c3.2-2.6,6.3-5.3,9.5-7.9c1.6-1.3,3.1-2.7,4.7-4l2.3-2l0.6-0.5
		c0.1-0.1,0.1-0.1,0.1-0.1c0,0,0.1,0,0.1-0.1c0.1-0.1,0.4-0.1,0.6-0.1c0.2,0,0.4,0,0.6,0.1c0,0,0.1,0,0.1,0.1c0,0,0,0,0.1,0.1
		l0.6,0.5l2.3,2l4.7,4c3.2,2.6,6.3,5.3,9.5,7.9c6.3,5.2,12.8,10.4,19.5,15.2c-5.6-6.1-11.5-11.9-17.4-17.5c-1.2-1.2-2.5-2.4-3.7-3.5
		c2-1.1,3.9-2.3,5.8-3.6c2.3-1.6,4.5-3.4,6.7-5.3c2.1-1.9,4.2-3.8,6.1-5.9c1.9-2.1,3.8-4.3,5.3-6.8c-2.7,1.2-5.1,2.8-7.4,4.4
		c-2.3,1.6-4.5,3.4-6.7,5.2c-2.1,1.9-4.2,3.8-6.1,5.9c-1.5,1.7-3,3.4-4.4,5.3c-1.5-1.4-3.1-2.8-4.6-4.3l-4.6-4.1L54,55l-0.6-0.5
		c-0.1-0.1-0.3-0.2-0.5-0.4c-0.2-0.1-0.4-0.2-0.6-0.3c-0.8-0.4-1.6-0.6-2.4-0.6c-0.8,0-1.6,0.2-2.4,0.6c-0.2,0.1-0.4,0.2-0.6,0.3
		c-0.2,0.1-0.4,0.3-0.5,0.4L46,55l-2.3,2.1c-1.5,1.4-3.1,2.7-4.6,4.1c-1.5,1.4-3.1,2.9-4.6,4.3c-1.3-1.9-2.8-3.6-4.3-5.3
		c-1.9-2.1-4-4-6.1-5.9c-2.1-1.9-4.3-3.6-6.7-5.3c-2.3-1.6-4.7-3.2-7.4-4.4c1.6,2.5,3.4,4.7,5.3,6.8C17.3,53.5,19.3,55.5,21.4,57.3z
		"/>
</g>
</svg>
