<?xml version="1.0" encoding="utf-8"?>
<!-- Generator: Adobe Illustrator 21.0.2, SVG Export Plug-In . SVG Version: 6.00 Build 0)  -->
<svg version="1.1" id="Icons_-_48px" xmlns="http://www.w3.org/2000/svg" xmlns:xlink="http://www.w3.org/1999/xlink" x="0px"
	 y="0px" viewBox="0 0 100 100" style="enable-background:new 0 0 100 100;" xml:space="preserve">
<style type="text/css">
	.st0{fill:#300000;}
</style>
<g>
	<path class="st0" d="M72.2,15c0-1.5-0.6-3-1.6-4.2c-1-1.2-2.4-2-4-2.2c-0.2,0-0.4-0.1-0.6-0.1c-0.2,0-0.4,0-0.5,0l-0.9,0l-1.8,0
		l-7.3-0.2c-4.9-0.1-9.8-0.2-14.6-0.2l-3.7,0l-1.8,0l-0.9,0c-0.4,0-0.8,0-1.3,0.1c-1.7,0.3-3.2,1.2-4.2,2.5c-1.1,1.3-1.6,3-1.7,4.6
		c0,19.5,0.4,39.1,1,58.6l0.2,7.3c0,1.2,0.1,2.4,0.1,3.7c0.1,1.4,0.7,2.7,1.6,3.7c0.9,1,2.2,1.7,3.5,1.8c0.7,0.1,1.3,0,1.9,0l1.8,0
		l7.3-0.2l14.6-0.2l3.7,0l1.8,0c0.6,0,1.2,0,1.8-0.1c1.2-0.2,2.3-0.9,3.1-1.9c0.8-1,1.2-2.2,1.2-3.4c0,1.2-0.4,2.4-1.2,3.4
		c-0.8,0.9-1.9,1.6-3.1,1.8C66,90,65.4,89.9,64.8,90l-1.8,0l-3.7,0l-14.6-0.2l-7.3-0.2l-1.8,0c-0.6,0-1.2,0-1.8-0.1
		c-1.1-0.2-2.1-0.8-2.8-1.6c-0.7-0.8-1.1-1.9-1.1-3c0-1.2,0.1-2.4,0.1-3.6l0.2-7.3c0.6-19.5,1-39.1,1-58.6c0-0.8,0.3-1.5,0.7-2.1
		c0.5-0.6,1.2-1,1.9-1.2c0.2,0,0.4-0.1,0.6-0.1l0.9,0l1.8,0l3.7,0c4.9,0,9.8-0.1,14.6-0.2l7.3-0.2l1.8,0l0.9,0c0.2,0,0.3,0,0.4,0
		c0.1,0,0.2,0,0.3,0c0.9,0.1,1.7,0.5,2.3,1.2c0.6,0.7,1,1.5,1.1,2.5c0,0.2,0,0.6,0,0.9l0,0.9l0.1,1.8l0.2,7.3
		c0.6,19.5,1,39.1,1,58.6c0-19.5,0.4-39.1,1-58.6l0.2-7.3l0.1-1.8l0-0.9C72.2,15.7,72.2,15.4,72.2,15z"/>
	<path class="st0" d="M50,16.7c-0.9,0-1.7,0.1-2.6,0.4c-0.9,0.3-1.7,0.7-2.6,1.6c0.9,0.8,1.7,1.3,2.6,1.6c0.9,0.3,1.7,0.4,2.6,0.4
		c0.9,0,1.7-0.1,2.6-0.4c0.9-0.3,1.7-0.7,2.6-1.6c-0.9-0.8-1.7-1.3-2.6-1.6C51.7,16.8,50.9,16.7,50,16.7z"/>
	<path class="st0" d="M50,78.6c-0.7-0.3-1.7-0.2-2.5,0.3c-0.8,0.5-1.3,1.5-1.3,2.5c0,1,0.5,1.9,1.3,2.4c0.8,0.5,1.7,0.6,2.4,0.3
		c0.7-0.3,1.2-0.8,1.4-1.3c0.2-0.5,0.3-1,0.3-1.4c0-0.5-0.1-0.9-0.3-1.4C51.2,79.4,50.7,78.8,50,78.6z"/>
</g>
</svg>
