<?xml version="1.0" encoding="utf-8"?>
<!-- Generator: Adobe Illustrator 21.0.2, SVG Export Plug-In . SVG Version: 6.00 Build 0)  -->
<svg version="1.1" id="Icons_-_48px" xmlns="http://www.w3.org/2000/svg" xmlns:xlink="http://www.w3.org/1999/xlink" x="0px"
	 y="0px" viewBox="0 0 100 100" style="enable-background:new 0 0 100 100;" xml:space="preserve">
<style type="text/css">
	.st0{fill:#300000;}
</style>
<path class="st0" d="M77.7,27.1c-0.3-2.3-0.7-4.7-1.6-7c0,0,0,0,0,0.1c-2,1.3-4,2.4-6.1,3.1c-2.1,0.8-4.2,1.1-6.4,1.1
	c-4.3,0.1-8.6-1.2-12.9-2.5c-4.4-1.3-8.9-2.9-13.8-3.3c-2.5-0.2-5,0.1-7.4,1c-2.3,0.9-4.3,2.5-5.6,4.4c0,0,0,0,0-0.1
	c-0.8,4.7-1.2,9.3-1.6,14c-0.3,4.7-0.4,9.3-0.4,14c0,4.7,0.1,9.3,0.4,14c0.3,4.7,0.7,9.3,1.6,14c0.8-4.7,1.3-9.3,1.6-14
	c0.3-4.7,0.4-9.3,0.4-14c0-0.3,0-0.7,0-1c1.4-0.7,2.8-1.2,4.2-1.4c2.1-0.4,4.3-0.2,6.4,0.2c4.3,0.8,8.5,2.6,13,4
	c4.5,1.4,9.4,2.5,14.4,1.8c2.5-0.3,4.9-1.2,7-2.5c2.1-1.3,3.8-3,5.2-4.9c0,0,0,0,0,0c0.8-2.3,1.3-4.7,1.6-7c0.3-2.3,0.4-4.7,0.4-7
	C78.1,31.8,78,29.4,77.7,27.1z M70,51.3c-2.1,0.8-4.2,1.1-6.4,1.1c-4.3,0.1-8.6-1.2-12.9-2.5c-4.4-1.3-8.9-2.9-13.8-3.3
	c-2.5-0.2-5,0.1-7.4,1C28.2,48.3,27,49,25.9,50c0-4-0.2-8-0.4-11.9c-0.3-4.6-0.7-9.3-1.6-13.9c2-1.3,4-2.2,6.2-2.6
	c2.1-0.4,4.3-0.2,6.4,0.2c4.3,0.8,8.5,2.6,13,4c4.5,1.4,9.4,2.5,14.4,1.8c2.5-0.3,4.9-1.2,7-2.5c2.1-1.3,3.8-3,5.2-4.9
	c-0.8,2.3-1.2,4.6-1.5,6.9c-0.3,2.3-0.4,4.7-0.4,7c0,2.3,0.1,4.7,0.4,7c0.3,2.3,0.7,4.7,1.6,7C74.1,49.4,72.1,50.5,70,51.3z"/>
</svg>
