<?xml version="1.0" encoding="utf-8"?>
<!-- Generator: Adobe Illustrator 21.0.2, SVG Export Plug-In . SVG Version: 6.00 Build 0)  -->
<svg version="1.1" id="Icons_-_48px" xmlns="http://www.w3.org/2000/svg" xmlns:xlink="http://www.w3.org/1999/xlink" x="0px"
	 y="0px" viewBox="0 0 100 100" style="enable-background:new 0 0 100 100;" xml:space="preserve">
<style type="text/css">
	.st0{fill:#300000;}
</style>
<path class="st0" d="M74,73.3c-2.1-3.3-4.2-6.6-6.4-10c-2.2-3.4-4.4-6.9-6.6-10.4c1.8,3.4,3.6,6.9,5.5,10.5c1.7,3.3,3.4,6.6,5.2,10
	c-3.2,1.6-6.6,2.9-10.1,3.7c-3.8,0.9-7.7,1.4-11.6,1.3c-3.9-0.1-7.8-0.6-11.5-1.7c-3.1-0.9-6.1-2.1-8.9-3.6l5.1-8.8
	c2-3.5,4-7,6-10.5l0,0c0.1-0.1,0.1-0.2,0.2-0.3c0.3-1-0.2-2.1-1.2-2.5c-1.5-0.5-2.9-1.1-4.3-1.8l3.3-5.8l4.2-7.5
	c2.4-4.3,4.8-8.6,7.2-12.9c2.5,4.2,5.1,8.4,7.7,12.5c3,4.8,6,9.6,9,14.4C65,51,63,52,61,52.8c2.2-0.6,4.4-1.5,6.5-2.5
	c0.2-0.1,0.2-0.3,0.1-0.5l0,0c-2.7-5.1-5.4-10.2-8.1-15.3c-2.7-5.1-5.5-10.2-8.3-15.2c-0.1-0.2-0.3-0.4-0.5-0.5
	c-0.7-0.4-1.6-0.2-2,0.5l0,0c-3,4.9-6,9.9-8.9,14.8l-4.4,7.4L31,49l0,0c-0.5,0.9-0.2,2.1,0.7,2.6l0,0c1.4,0.8,2.9,1.6,4.4,2.2
	c-1.6,2.8-3.3,5.6-4.9,8.5l-6,10.5l0,0c-0.5,0.9-0.2,2.1,0.7,2.6c3.6,2.1,7.6,3.7,11.6,4.7c4.1,1,8.2,1.6,12.4,1.5
	c4.2-0.1,8.3-0.7,12.3-1.9c4-1.2,7.8-2.9,11.3-5.1l0.1,0l0,0C74.1,74.4,74.3,73.8,74,73.3z"/>
</svg>
