<?xml version="1.0" encoding="utf-8"?>
<!-- Generator: Adobe Illustrator 21.0.2, SVG Export Plug-In . SVG Version: 6.00 Build 0)  -->
<svg version="1.1" id="Icons_-_48px" xmlns="http://www.w3.org/2000/svg" xmlns:xlink="http://www.w3.org/1999/xlink" x="0px"
	 y="0px" viewBox="0 0 100 100" style="enable-background:new 0 0 100 100;" xml:space="preserve">
<style type="text/css">
	.st0{fill:#300000;}
</style>
<path class="st0" d="M80.5,31.8c-2.8-2.1-5.6-4.1-8.3-5.9c2.3,2.2,4.5,4.4,6.7,6.4c-2.4,1.7-4.7,3.5-7.1,5.3
	c-3.1-0.1-6.2-0.2-9.4-0.3c-3.3-0.1-6.5-0.1-9.8-0.2c-3.3-0.1-6.5-0.1-9.8-0.1c-2.6,0-5.2,0-7.8,0l0-4.5c0-1.6,0-3.2-0.1-4.7
	c2.6-0.1,5.2-0.1,7.8-0.2c3.2-0.1,6.5-0.2,9.7-0.4c6.5-0.3,13.1-0.7,19.8-1.2c-6.3-0.5-12.8-0.9-19.4-1.2c-0.4,0-0.9,0-1.3-0.1
	c0-0.5-0.1-1-0.1-1.6c-0.3-3-0.6-6-1.2-9c0-0.1-0.1-0.1-0.2-0.2c-0.1,0-0.2,0.1-0.2,0.2c-0.6,3-0.9,6-1.2,9c0,0.5-0.1,1-0.1,1.4
	c-1.8-0.1-3.7-0.1-5.5-0.2c-3.3-0.1-6.6-0.2-9.9-0.2l0,0c-1,0-1.8,0.8-1.8,1.8l0,0.1c0,2.2-0.1,4.3-0.1,6.5l0,6.5c0,1.1,0.9,2,1.9,2
	l0,0c3.3,0,6.5,0,9.8,0c1.7,0,3.5,0,5.2,0c0.1,1.5,0.1,3.1,0.2,4.6c-0.3,0-0.7,0-1,0c-3.3,0.1-6.5,0.3-9.8,0.5
	c-3.2,0.2-6.4,0.4-9.6,0.7c3.4,0.3,6.7,0.5,10,0.7c3.3,0.2,6.6,0.4,9.8,0.5c3.3,0.2,6.5,0.2,9.7,0.4c2.6,0.1,5.2,0.1,7.8,0.2
	C65,51.6,65,54.7,65,57.8c-2.6,0-5.2,0-7.8,0c-3.3,0-6.5,0-9.8,0.1c-3.3,0.1-6.5,0.1-9.8,0.2c-3.1,0.1-6.3,0.2-9.4,0.3l-3.7-2.8
	l-3.4-2.5c1-0.9,2-1.9,3-2.8l3.7-3.6c-1.4,1-2.7,1.9-4.1,2.9c-1.4,1-2.8,2-4.2,3c0,0-0.1,0.1-0.1,0.1c-0.3,0.3-0.3,0.7,0,1l0.1,0.1
	l3.7,3.5l3.8,3.4c0.2,0.2,0.4,0.3,0.7,0.3l0.1,0c3.3,0.2,6.5,0.2,9.8,0.4c3.3,0.1,6.5,0.1,9.8,0.2c0.5,0,0.9,0,1.4,0L49,68
	c0.3,6,0.5,12,0.8,18c0,0.1,0.1,0.2,0.2,0.2c0.1,0,0.2-0.1,0.2-0.2c0.3-6,0.5-12,0.8-18l0.2-6.3c2,0,4,0,6,0c3.3,0,6.5,0.1,9.8,0
	l0,0c1.1,0,1.9-0.9,1.9-2c0-4.3,0-8.7-0.1-13l0-0.1c0-1-0.8-1.8-1.8-1.7C63.6,45,60.3,45,57,45.1c-1.8,0.1-3.5,0.1-5.2,0.2
	c0.1-1.5,0.1-3,0.2-4.5c0.2,0,0.4,0,0.6,0c3.3-0.1,6.5-0.1,9.8-0.2c3.3-0.1,6.5-0.2,9.8-0.4l0.1,0c0.3,0,0.5-0.1,0.7-0.3
	c2.5-2.3,5-4.6,7.5-6.9l0.1-0.1c0,0,0.1-0.1,0.1-0.1C80.9,32.5,80.8,32,80.5,31.8z"/>
</svg>
